M48
; DRILL file {KiCad 6.0.4-6f826c9f35~116~ubuntu18.04.1} date Sun 26 Nov 2023 11:13:29 AM EST
; FORMAT={-:-/ absolute / metric / decimal}
; #@! TF.CreationDate,2023-11-26T11:13:29-05:00
; #@! TF.GenerationSoftware,Kicad,Pcbnew,6.0.4-6f826c9f35~116~ubuntu18.04.1
; #@! TF.FileFunction,MixedPlating,1,2
FMAT,2
METRIC
; #@! TA.AperFunction,Plated,PTH,ComponentDrill
T1C0.700
; #@! TA.AperFunction,Plated,PTH,ComponentDrill
T2C0.800
; #@! TA.AperFunction,Plated,PTH,ComponentDrill
T3C1.000
; #@! TA.AperFunction,NonPlated,NPTH,ComponentDrill
T4C1.200
; #@! TA.AperFunction,NonPlated,NPTH,ComponentDrill
T5C3.200
%
G90
G05
T3
X60.434Y-17.587
X62.974Y-17.587
X65.514Y-17.587
X68.054Y-17.587
X70.594Y-17.587
T4
X56.554Y-3.787
X65.519Y-2.087
X65.519Y-4.587
X70.519Y-9.588
X75.519Y-2.087
X75.519Y-4.587
T5
X53.275Y-12.35
X53.275Y-30.075
X77.775Y-15.35
X77.775Y-30.075
T1
X54.704Y-5.888G85X54.704Y-6.688
G05
X56.154Y-1.387G85X56.954Y-1.387
G05
X56.154Y-8.287G85X56.954Y-8.287
G05
X58.404Y-5.888G85X58.404Y-6.688
G05
T2
X65.519Y-9.938G85X65.519Y-9.237
G05
X70.869Y-4.587G85X70.169Y-4.587
G05
X75.519Y-9.938G85X75.519Y-9.237
G05
T0
M30
