%TF.GenerationSoftware,KiCad,Pcbnew,6.0.4-6f826c9f35~116~ubuntu18.04.1*%
%TF.CreationDate,2023-11-26T11:14:00-05:00*%
%TF.ProjectId,SH101_MOD_GRIP_BOARD,53483130-315f-44d4-9f44-5f475249505f,rev?*%
%TF.SameCoordinates,Original*%
%TF.FileFunction,Legend,Top*%
%TF.FilePolarity,Positive*%
%FSLAX46Y46*%
G04 Gerber Fmt 4.6, Leading zero omitted, Abs format (unit mm)*
G04 Created by KiCad (PCBNEW 6.0.4-6f826c9f35~116~ubuntu18.04.1) date 2023-11-26 11:14:00*
%MOMM*%
%LPD*%
G01*
G04 APERTURE LIST*
%ADD10C,0.300000*%
%ADD11C,0.120000*%
G04 APERTURE END LIST*
D10*
X15821428Y-21649642D02*
X16035714Y-21721071D01*
X16392857Y-21721071D01*
X16535714Y-21649642D01*
X16607142Y-21578214D01*
X16678571Y-21435357D01*
X16678571Y-21292500D01*
X16607142Y-21149642D01*
X16535714Y-21078214D01*
X16392857Y-21006785D01*
X16107142Y-20935357D01*
X15964285Y-20863928D01*
X15892857Y-20792500D01*
X15821428Y-20649642D01*
X15821428Y-20506785D01*
X15892857Y-20363928D01*
X15964285Y-20292500D01*
X16107142Y-20221071D01*
X16464285Y-20221071D01*
X16678571Y-20292500D01*
X17321428Y-21721071D02*
X17321428Y-20221071D01*
X17321428Y-20935357D02*
X18178571Y-20935357D01*
X18178571Y-21721071D02*
X18178571Y-20221071D01*
X18892857Y-21149642D02*
X20035714Y-21149642D01*
X21535714Y-21721071D02*
X20678571Y-21721071D01*
X21107142Y-21721071D02*
X21107142Y-20221071D01*
X20964285Y-20435357D01*
X20821428Y-20578214D01*
X20678571Y-20649642D01*
X22392857Y-21721071D02*
X22250000Y-21649642D01*
X22178571Y-21578214D01*
X22107142Y-21435357D01*
X22107142Y-21006785D01*
X22178571Y-20863928D01*
X22250000Y-20792500D01*
X22392857Y-20721071D01*
X22607142Y-20721071D01*
X22750000Y-20792500D01*
X22821428Y-20863928D01*
X22892857Y-21006785D01*
X22892857Y-21435357D01*
X22821428Y-21578214D01*
X22750000Y-21649642D01*
X22607142Y-21721071D01*
X22392857Y-21721071D01*
X23535714Y-21721071D02*
X23535714Y-20221071D01*
X24178571Y-21721071D02*
X24178571Y-20935357D01*
X24107142Y-20792500D01*
X23964285Y-20721071D01*
X23750000Y-20721071D01*
X23607142Y-20792500D01*
X23535714Y-20863928D01*
X25678571Y-21721071D02*
X24821428Y-21721071D01*
X25250000Y-21721071D02*
X25250000Y-20221071D01*
X25107142Y-20435357D01*
X24964285Y-20578214D01*
X24821428Y-20649642D01*
X11285714Y-24136071D02*
X11285714Y-22636071D01*
X11785714Y-23707500D01*
X12285714Y-22636071D01*
X12285714Y-24136071D01*
X13285714Y-22636071D02*
X13571428Y-22636071D01*
X13714285Y-22707500D01*
X13857142Y-22850357D01*
X13928571Y-23136071D01*
X13928571Y-23636071D01*
X13857142Y-23921785D01*
X13714285Y-24064642D01*
X13571428Y-24136071D01*
X13285714Y-24136071D01*
X13142857Y-24064642D01*
X13000000Y-23921785D01*
X12928571Y-23636071D01*
X12928571Y-23136071D01*
X13000000Y-22850357D01*
X13142857Y-22707500D01*
X13285714Y-22636071D01*
X14571428Y-24136071D02*
X14571428Y-22636071D01*
X14928571Y-22636071D01*
X15142857Y-22707500D01*
X15285714Y-22850357D01*
X15357142Y-22993214D01*
X15428571Y-23278928D01*
X15428571Y-23493214D01*
X15357142Y-23778928D01*
X15285714Y-23921785D01*
X15142857Y-24064642D01*
X14928571Y-24136071D01*
X14571428Y-24136071D01*
X18000000Y-22707500D02*
X17857142Y-22636071D01*
X17642857Y-22636071D01*
X17428571Y-22707500D01*
X17285714Y-22850357D01*
X17214285Y-22993214D01*
X17142857Y-23278928D01*
X17142857Y-23493214D01*
X17214285Y-23778928D01*
X17285714Y-23921785D01*
X17428571Y-24064642D01*
X17642857Y-24136071D01*
X17785714Y-24136071D01*
X18000000Y-24064642D01*
X18071428Y-23993214D01*
X18071428Y-23493214D01*
X17785714Y-23493214D01*
X19571428Y-24136071D02*
X19071428Y-23421785D01*
X18714285Y-24136071D02*
X18714285Y-22636071D01*
X19285714Y-22636071D01*
X19428571Y-22707500D01*
X19500000Y-22778928D01*
X19571428Y-22921785D01*
X19571428Y-23136071D01*
X19500000Y-23278928D01*
X19428571Y-23350357D01*
X19285714Y-23421785D01*
X18714285Y-23421785D01*
X20214285Y-24136071D02*
X20214285Y-22636071D01*
X20928571Y-24136071D02*
X20928571Y-22636071D01*
X21500000Y-22636071D01*
X21642857Y-22707500D01*
X21714285Y-22778928D01*
X21785714Y-22921785D01*
X21785714Y-23136071D01*
X21714285Y-23278928D01*
X21642857Y-23350357D01*
X21500000Y-23421785D01*
X20928571Y-23421785D01*
X24071428Y-23350357D02*
X24285714Y-23421785D01*
X24357142Y-23493214D01*
X24428571Y-23636071D01*
X24428571Y-23850357D01*
X24357142Y-23993214D01*
X24285714Y-24064642D01*
X24142857Y-24136071D01*
X23571428Y-24136071D01*
X23571428Y-22636071D01*
X24071428Y-22636071D01*
X24214285Y-22707500D01*
X24285714Y-22778928D01*
X24357142Y-22921785D01*
X24357142Y-23064642D01*
X24285714Y-23207500D01*
X24214285Y-23278928D01*
X24071428Y-23350357D01*
X23571428Y-23350357D01*
X25357142Y-22636071D02*
X25642857Y-22636071D01*
X25785714Y-22707500D01*
X25928571Y-22850357D01*
X26000000Y-23136071D01*
X26000000Y-23636071D01*
X25928571Y-23921785D01*
X25785714Y-24064642D01*
X25642857Y-24136071D01*
X25357142Y-24136071D01*
X25214285Y-24064642D01*
X25071428Y-23921785D01*
X25000000Y-23636071D01*
X25000000Y-23136071D01*
X25071428Y-22850357D01*
X25214285Y-22707500D01*
X25357142Y-22636071D01*
X26571428Y-23707500D02*
X27285714Y-23707500D01*
X26428571Y-24136071D02*
X26928571Y-22636071D01*
X27428571Y-24136071D01*
X28785714Y-24136071D02*
X28285714Y-23421785D01*
X27928571Y-24136071D02*
X27928571Y-22636071D01*
X28499999Y-22636071D01*
X28642857Y-22707500D01*
X28714285Y-22778928D01*
X28785714Y-22921785D01*
X28785714Y-23136071D01*
X28714285Y-23278928D01*
X28642857Y-23350357D01*
X28499999Y-23421785D01*
X27928571Y-23421785D01*
X29428571Y-24136071D02*
X29428571Y-22636071D01*
X29785714Y-22636071D01*
X29999999Y-22707500D01*
X30142857Y-22850357D01*
X30214285Y-22993214D01*
X30285714Y-23278928D01*
X30285714Y-23493214D01*
X30214285Y-23778928D01*
X30142857Y-23921785D01*
X29999999Y-24064642D01*
X29785714Y-24136071D01*
X29428571Y-24136071D01*
D11*
%TO.C,SP2*%
X11451520Y-29998044D02*
G75*
G03*
X11451520Y-29998044I-3200000J0D01*
G01*
%TO.C,SP1*%
X11451520Y-12248044D02*
G75*
G03*
X11451520Y-12248044I-3200000J0D01*
G01*
%TO.C,SP4*%
X35951520Y-29998044D02*
G75*
G03*
X35951520Y-29998044I-3200000J0D01*
G01*
%TO.C,SP3*%
X35951520Y-15248044D02*
G75*
G03*
X35951520Y-15248044I-3200000J0D01*
G01*
%TD*%
M02*
