%TF.GenerationSoftware,KiCad,Pcbnew,6.0.4-6f826c9f35~116~ubuntu18.04.1*%
%TF.CreationDate,2023-11-26T11:14:00-05:00*%
%TF.ProjectId,SH101_MOD_GRIP_BOARD,53483130-315f-44d4-9f44-5f475249505f,rev?*%
%TF.SameCoordinates,Original*%
%TF.FileFunction,Copper,L1,Top*%
%TF.FilePolarity,Positive*%
%FSLAX46Y46*%
G04 Gerber Fmt 4.6, Leading zero omitted, Abs format (unit mm)*
G04 Created by KiCad (PCBNEW 6.0.4-6f826c9f35~116~ubuntu18.04.1) date 2023-11-26 11:14:00*
%MOMM*%
%LPD*%
G01*
G04 APERTURE LIST*
G04 APERTURE END LIST*
%TO.C,SP2*%
G36*
X8001402Y-27905137D02*
G01*
X7911496Y-27917906D01*
X7822869Y-27934373D01*
X7735601Y-27954457D01*
X7649773Y-27978078D01*
X7565466Y-28005155D01*
X7482760Y-28035607D01*
X7401736Y-28069353D01*
X7322474Y-28106314D01*
X7245056Y-28146408D01*
X7169562Y-28189555D01*
X7096072Y-28235674D01*
X7024667Y-28284684D01*
X6955428Y-28336505D01*
X6888435Y-28391057D01*
X6823769Y-28448258D01*
X6761511Y-28508028D01*
X6701742Y-28570286D01*
X6644541Y-28634952D01*
X6589990Y-28701945D01*
X6538169Y-28771184D01*
X6489158Y-28842590D01*
X6443040Y-28916080D01*
X6399893Y-28991575D01*
X6359799Y-29068993D01*
X6322839Y-29148255D01*
X6289093Y-29229280D01*
X6258641Y-29311986D01*
X6231565Y-29396294D01*
X6207944Y-29482122D01*
X6187860Y-29569391D01*
X6171394Y-29658019D01*
X6158625Y-29747925D01*
X5162302Y-29747925D01*
X5176960Y-29606909D01*
X5197801Y-29467861D01*
X5224684Y-29330924D01*
X5257468Y-29196236D01*
X5296015Y-29063940D01*
X5340182Y-28934174D01*
X5389830Y-28807080D01*
X5444818Y-28682798D01*
X5505006Y-28561469D01*
X5570253Y-28443233D01*
X5640419Y-28328230D01*
X5715363Y-28216601D01*
X5794945Y-28108486D01*
X5879024Y-28004026D01*
X5967461Y-27903361D01*
X6060114Y-27806632D01*
X6156843Y-27713979D01*
X6257507Y-27625542D01*
X6361967Y-27541463D01*
X6470082Y-27461881D01*
X6581711Y-27386937D01*
X6696714Y-27316771D01*
X6814950Y-27251524D01*
X6936279Y-27191336D01*
X7060561Y-27136348D01*
X7187655Y-27086700D01*
X7317420Y-27042533D01*
X7449717Y-27003987D01*
X7584404Y-26971202D01*
X7721341Y-26944320D01*
X7860389Y-26923479D01*
X8001406Y-26908822D01*
X8001402Y-27905137D01*
G37*
G36*
X11326102Y-30389182D02*
G01*
X11305281Y-30528249D01*
X11278416Y-30665206D01*
X11245648Y-30799914D01*
X11207117Y-30932231D01*
X11162963Y-31062016D01*
X11113326Y-31189131D01*
X11058349Y-31313433D01*
X10998170Y-31434783D01*
X10932930Y-31553040D01*
X10862770Y-31668064D01*
X10787830Y-31779713D01*
X10708251Y-31887848D01*
X10624174Y-31992328D01*
X10535738Y-32093013D01*
X10443084Y-32189761D01*
X10346353Y-32282433D01*
X10245685Y-32370887D01*
X10141221Y-32454985D01*
X10033100Y-32534584D01*
X9921465Y-32609544D01*
X9806454Y-32679725D01*
X9688209Y-32744987D01*
X9566870Y-32805189D01*
X9442578Y-32860190D01*
X9315473Y-32909850D01*
X9185695Y-32954028D01*
X9053385Y-32992584D01*
X8918683Y-33025378D01*
X8781731Y-33052268D01*
X8642668Y-33073114D01*
X8501635Y-33087777D01*
X8501638Y-32090943D01*
X8591544Y-32078174D01*
X8680172Y-32061707D01*
X8767439Y-32041623D01*
X8853267Y-32018002D01*
X8937574Y-31990925D01*
X9020280Y-31960473D01*
X9101304Y-31926727D01*
X9180566Y-31889766D01*
X9257984Y-31849672D01*
X9333478Y-31806525D01*
X9406968Y-31760406D01*
X9478373Y-31711396D01*
X9547612Y-31659575D01*
X9614605Y-31605023D01*
X9679271Y-31547822D01*
X9741529Y-31488052D01*
X9801298Y-31425794D01*
X9858499Y-31361128D01*
X9913050Y-31294135D01*
X9964871Y-31224895D01*
X10013882Y-31153490D01*
X10060000Y-31080000D01*
X10103147Y-31004505D01*
X10143241Y-30927086D01*
X10180201Y-30847825D01*
X10213947Y-30766800D01*
X10244399Y-30684094D01*
X10271476Y-30599786D01*
X10295096Y-30513957D01*
X10315180Y-30426689D01*
X10331647Y-30338061D01*
X10344415Y-30248154D01*
X11340738Y-30248147D01*
X11326102Y-30389182D01*
G37*
G36*
X8642668Y-26922972D02*
G01*
X8781731Y-26943818D01*
X8918683Y-26970708D01*
X9053385Y-27003501D01*
X9185695Y-27042056D01*
X9315473Y-27086233D01*
X9442578Y-27135893D01*
X9566870Y-27190893D01*
X9688209Y-27251094D01*
X9806454Y-27316355D01*
X9921465Y-27386536D01*
X10033100Y-27461496D01*
X10141221Y-27541094D01*
X10245685Y-27625191D01*
X10346353Y-27713645D01*
X10443084Y-27806316D01*
X10535738Y-27903064D01*
X10624174Y-28003748D01*
X10708251Y-28108227D01*
X10787830Y-28216362D01*
X10862770Y-28328011D01*
X10932930Y-28443034D01*
X10998170Y-28561291D01*
X11058349Y-28682640D01*
X11113326Y-28806942D01*
X11162963Y-28934057D01*
X11207117Y-29063842D01*
X11245648Y-29196159D01*
X11278416Y-29330866D01*
X11305281Y-29467823D01*
X11326102Y-29606890D01*
X11340738Y-29747925D01*
X10344415Y-29747918D01*
X10331646Y-29658012D01*
X10315179Y-29569385D01*
X10295095Y-29482117D01*
X10271474Y-29396289D01*
X10244398Y-29311982D01*
X10213946Y-29229276D01*
X10180199Y-29148252D01*
X10143238Y-29068990D01*
X10103144Y-28991572D01*
X10059998Y-28916078D01*
X10013879Y-28842588D01*
X9964869Y-28771183D01*
X9913047Y-28701944D01*
X9858496Y-28634951D01*
X9801295Y-28570286D01*
X9741525Y-28508028D01*
X9679267Y-28448258D01*
X9614602Y-28391057D01*
X9547609Y-28336506D01*
X9478370Y-28284685D01*
X9406965Y-28235675D01*
X9333475Y-28189557D01*
X9257980Y-28146411D01*
X9180562Y-28106317D01*
X9101301Y-28069357D01*
X9020277Y-28035611D01*
X8937571Y-28005159D01*
X8853263Y-27978083D01*
X8767436Y-27954463D01*
X8680168Y-27934379D01*
X8591540Y-27917913D01*
X8501635Y-27905144D01*
X8501635Y-26908311D01*
X8642668Y-26922972D01*
G37*
G36*
X6158625Y-30248162D02*
G01*
X6171394Y-30338068D01*
X6187861Y-30426695D01*
X6207945Y-30513963D01*
X6231566Y-30599791D01*
X6258642Y-30684098D01*
X6289094Y-30766804D01*
X6322841Y-30847828D01*
X6359802Y-30927090D01*
X6399896Y-31004508D01*
X6443042Y-31080002D01*
X6489161Y-31153492D01*
X6538171Y-31224897D01*
X6589993Y-31294136D01*
X6644544Y-31361129D01*
X6701745Y-31425794D01*
X6761515Y-31488052D01*
X6823773Y-31547822D01*
X6888439Y-31605022D01*
X6955431Y-31659574D01*
X7024670Y-31711394D01*
X7096075Y-31760404D01*
X7169565Y-31806523D01*
X7245060Y-31849669D01*
X7322478Y-31889763D01*
X7401740Y-31926723D01*
X7482764Y-31960469D01*
X7565469Y-31990921D01*
X7649777Y-32017997D01*
X7735605Y-32041617D01*
X7822872Y-32061701D01*
X7911500Y-32078167D01*
X8001406Y-32090935D01*
X8001406Y-33087258D01*
X7860389Y-33072600D01*
X7721341Y-33051759D01*
X7584404Y-33024876D01*
X7449717Y-32992091D01*
X7317420Y-32953544D01*
X7187655Y-32909377D01*
X7060561Y-32859729D01*
X6936279Y-32804741D01*
X6814950Y-32744553D01*
X6696714Y-32679306D01*
X6581711Y-32609140D01*
X6470082Y-32534196D01*
X6361967Y-32454614D01*
X6257507Y-32370534D01*
X6156843Y-32282098D01*
X6060114Y-32189445D01*
X5967461Y-32092716D01*
X5879024Y-31992052D01*
X5794945Y-31887592D01*
X5715363Y-31779477D01*
X5640419Y-31667848D01*
X5570253Y-31552846D01*
X5505006Y-31434610D01*
X5444818Y-31313280D01*
X5389830Y-31188999D01*
X5340182Y-31061905D01*
X5296015Y-30932140D01*
X5257468Y-30799843D01*
X5224684Y-30665156D01*
X5197801Y-30528219D01*
X5176960Y-30389171D01*
X5162302Y-30248154D01*
X6158625Y-30248162D01*
G37*
%TO.C,SP1*%
G36*
X6158625Y-12498162D02*
G01*
X6171394Y-12588068D01*
X6187861Y-12676695D01*
X6207945Y-12763963D01*
X6231566Y-12849791D01*
X6258642Y-12934098D01*
X6289094Y-13016804D01*
X6322841Y-13097828D01*
X6359802Y-13177090D01*
X6399896Y-13254508D01*
X6443042Y-13330002D01*
X6489161Y-13403492D01*
X6538171Y-13474897D01*
X6589993Y-13544136D01*
X6644544Y-13611129D01*
X6701745Y-13675794D01*
X6761515Y-13738052D01*
X6823773Y-13797822D01*
X6888439Y-13855022D01*
X6955431Y-13909574D01*
X7024670Y-13961394D01*
X7096075Y-14010404D01*
X7169565Y-14056523D01*
X7245060Y-14099669D01*
X7322478Y-14139763D01*
X7401740Y-14176723D01*
X7482764Y-14210469D01*
X7565469Y-14240921D01*
X7649777Y-14267997D01*
X7735605Y-14291617D01*
X7822872Y-14311701D01*
X7911500Y-14328167D01*
X8001406Y-14340935D01*
X8001406Y-15337258D01*
X7860389Y-15322600D01*
X7721341Y-15301759D01*
X7584404Y-15274876D01*
X7449717Y-15242091D01*
X7317420Y-15203544D01*
X7187655Y-15159377D01*
X7060561Y-15109729D01*
X6936279Y-15054741D01*
X6814950Y-14994553D01*
X6696714Y-14929306D01*
X6581711Y-14859140D01*
X6470082Y-14784196D01*
X6361967Y-14704614D01*
X6257507Y-14620534D01*
X6156843Y-14532098D01*
X6060114Y-14439445D01*
X5967461Y-14342716D01*
X5879024Y-14242052D01*
X5794945Y-14137592D01*
X5715363Y-14029477D01*
X5640419Y-13917848D01*
X5570253Y-13802846D01*
X5505006Y-13684610D01*
X5444818Y-13563280D01*
X5389830Y-13438999D01*
X5340182Y-13311905D01*
X5296015Y-13182140D01*
X5257468Y-13049843D01*
X5224684Y-12915156D01*
X5197801Y-12778219D01*
X5176960Y-12639171D01*
X5162302Y-12498154D01*
X6158625Y-12498162D01*
G37*
G36*
X11326102Y-12639182D02*
G01*
X11305281Y-12778249D01*
X11278416Y-12915206D01*
X11245648Y-13049914D01*
X11207117Y-13182231D01*
X11162963Y-13312016D01*
X11113326Y-13439131D01*
X11058349Y-13563433D01*
X10998170Y-13684783D01*
X10932930Y-13803040D01*
X10862770Y-13918064D01*
X10787830Y-14029713D01*
X10708251Y-14137848D01*
X10624174Y-14242328D01*
X10535738Y-14343013D01*
X10443084Y-14439761D01*
X10346353Y-14532433D01*
X10245685Y-14620887D01*
X10141221Y-14704985D01*
X10033100Y-14784584D01*
X9921465Y-14859544D01*
X9806454Y-14929725D01*
X9688209Y-14994987D01*
X9566870Y-15055189D01*
X9442578Y-15110190D01*
X9315473Y-15159850D01*
X9185695Y-15204028D01*
X9053385Y-15242584D01*
X8918683Y-15275378D01*
X8781731Y-15302268D01*
X8642668Y-15323114D01*
X8501635Y-15337777D01*
X8501638Y-14340943D01*
X8591544Y-14328174D01*
X8680172Y-14311707D01*
X8767439Y-14291623D01*
X8853267Y-14268002D01*
X8937574Y-14240925D01*
X9020280Y-14210473D01*
X9101304Y-14176727D01*
X9180566Y-14139766D01*
X9257984Y-14099672D01*
X9333478Y-14056525D01*
X9406968Y-14010406D01*
X9478373Y-13961396D01*
X9547612Y-13909575D01*
X9614605Y-13855023D01*
X9679271Y-13797822D01*
X9741529Y-13738052D01*
X9801298Y-13675794D01*
X9858499Y-13611128D01*
X9913050Y-13544135D01*
X9964871Y-13474895D01*
X10013882Y-13403490D01*
X10060000Y-13330000D01*
X10103147Y-13254505D01*
X10143241Y-13177086D01*
X10180201Y-13097825D01*
X10213947Y-13016800D01*
X10244399Y-12934094D01*
X10271476Y-12849786D01*
X10295096Y-12763957D01*
X10315180Y-12676689D01*
X10331647Y-12588061D01*
X10344415Y-12498154D01*
X11340738Y-12498147D01*
X11326102Y-12639182D01*
G37*
G36*
X8001402Y-10155137D02*
G01*
X7911496Y-10167906D01*
X7822869Y-10184373D01*
X7735601Y-10204457D01*
X7649773Y-10228078D01*
X7565466Y-10255155D01*
X7482760Y-10285607D01*
X7401736Y-10319353D01*
X7322474Y-10356314D01*
X7245056Y-10396408D01*
X7169562Y-10439555D01*
X7096072Y-10485674D01*
X7024667Y-10534684D01*
X6955428Y-10586505D01*
X6888435Y-10641057D01*
X6823769Y-10698258D01*
X6761511Y-10758028D01*
X6701742Y-10820286D01*
X6644541Y-10884952D01*
X6589990Y-10951945D01*
X6538169Y-11021184D01*
X6489158Y-11092590D01*
X6443040Y-11166080D01*
X6399893Y-11241575D01*
X6359799Y-11318993D01*
X6322839Y-11398255D01*
X6289093Y-11479280D01*
X6258641Y-11561986D01*
X6231565Y-11646294D01*
X6207944Y-11732122D01*
X6187860Y-11819391D01*
X6171394Y-11908019D01*
X6158625Y-11997925D01*
X5162302Y-11997925D01*
X5176960Y-11856909D01*
X5197801Y-11717861D01*
X5224684Y-11580924D01*
X5257468Y-11446236D01*
X5296015Y-11313940D01*
X5340182Y-11184174D01*
X5389830Y-11057080D01*
X5444818Y-10932798D01*
X5505006Y-10811469D01*
X5570253Y-10693233D01*
X5640419Y-10578230D01*
X5715363Y-10466601D01*
X5794945Y-10358486D01*
X5879024Y-10254026D01*
X5967461Y-10153361D01*
X6060114Y-10056632D01*
X6156843Y-9963979D01*
X6257507Y-9875542D01*
X6361967Y-9791463D01*
X6470082Y-9711881D01*
X6581711Y-9636937D01*
X6696714Y-9566771D01*
X6814950Y-9501524D01*
X6936279Y-9441336D01*
X7060561Y-9386348D01*
X7187655Y-9336700D01*
X7317420Y-9292533D01*
X7449717Y-9253987D01*
X7584404Y-9221202D01*
X7721341Y-9194320D01*
X7860389Y-9173479D01*
X8001406Y-9158822D01*
X8001402Y-10155137D01*
G37*
G36*
X8642668Y-9172972D02*
G01*
X8781731Y-9193818D01*
X8918683Y-9220708D01*
X9053385Y-9253501D01*
X9185695Y-9292056D01*
X9315473Y-9336233D01*
X9442578Y-9385893D01*
X9566870Y-9440893D01*
X9688209Y-9501094D01*
X9806454Y-9566355D01*
X9921465Y-9636536D01*
X10033100Y-9711496D01*
X10141221Y-9791094D01*
X10245685Y-9875191D01*
X10346353Y-9963645D01*
X10443084Y-10056316D01*
X10535738Y-10153064D01*
X10624174Y-10253748D01*
X10708251Y-10358227D01*
X10787830Y-10466362D01*
X10862770Y-10578011D01*
X10932930Y-10693034D01*
X10998170Y-10811291D01*
X11058349Y-10932640D01*
X11113326Y-11056942D01*
X11162963Y-11184057D01*
X11207117Y-11313842D01*
X11245648Y-11446159D01*
X11278416Y-11580866D01*
X11305281Y-11717823D01*
X11326102Y-11856890D01*
X11340738Y-11997925D01*
X10344415Y-11997918D01*
X10331646Y-11908012D01*
X10315179Y-11819385D01*
X10295095Y-11732117D01*
X10271474Y-11646289D01*
X10244398Y-11561982D01*
X10213946Y-11479276D01*
X10180199Y-11398252D01*
X10143238Y-11318990D01*
X10103144Y-11241572D01*
X10059998Y-11166078D01*
X10013879Y-11092588D01*
X9964869Y-11021183D01*
X9913047Y-10951944D01*
X9858496Y-10884951D01*
X9801295Y-10820286D01*
X9741525Y-10758028D01*
X9679267Y-10698258D01*
X9614602Y-10641057D01*
X9547609Y-10586506D01*
X9478370Y-10534685D01*
X9406965Y-10485675D01*
X9333475Y-10439557D01*
X9257980Y-10396411D01*
X9180562Y-10356317D01*
X9101301Y-10319357D01*
X9020277Y-10285611D01*
X8937571Y-10255159D01*
X8853263Y-10228083D01*
X8767436Y-10204463D01*
X8680168Y-10184379D01*
X8591540Y-10167913D01*
X8501635Y-10155144D01*
X8501635Y-9158311D01*
X8642668Y-9172972D01*
G37*
%TO.C,SP4*%
G36*
X32501402Y-27905137D02*
G01*
X32411496Y-27917906D01*
X32322869Y-27934373D01*
X32235601Y-27954457D01*
X32149773Y-27978078D01*
X32065466Y-28005155D01*
X31982760Y-28035607D01*
X31901736Y-28069353D01*
X31822474Y-28106314D01*
X31745056Y-28146408D01*
X31669562Y-28189555D01*
X31596072Y-28235674D01*
X31524667Y-28284684D01*
X31455428Y-28336505D01*
X31388435Y-28391057D01*
X31323769Y-28448258D01*
X31261511Y-28508028D01*
X31201742Y-28570286D01*
X31144541Y-28634952D01*
X31089990Y-28701945D01*
X31038169Y-28771184D01*
X30989158Y-28842590D01*
X30943040Y-28916080D01*
X30899893Y-28991575D01*
X30859799Y-29068993D01*
X30822839Y-29148255D01*
X30789093Y-29229280D01*
X30758641Y-29311986D01*
X30731565Y-29396294D01*
X30707944Y-29482122D01*
X30687860Y-29569391D01*
X30671394Y-29658019D01*
X30658625Y-29747925D01*
X29662302Y-29747925D01*
X29676960Y-29606909D01*
X29697801Y-29467861D01*
X29724684Y-29330924D01*
X29757468Y-29196236D01*
X29796015Y-29063940D01*
X29840182Y-28934174D01*
X29889830Y-28807080D01*
X29944818Y-28682798D01*
X30005006Y-28561469D01*
X30070253Y-28443233D01*
X30140419Y-28328230D01*
X30215363Y-28216601D01*
X30294945Y-28108486D01*
X30379024Y-28004026D01*
X30467461Y-27903361D01*
X30560114Y-27806632D01*
X30656843Y-27713979D01*
X30757507Y-27625542D01*
X30861967Y-27541463D01*
X30970082Y-27461881D01*
X31081711Y-27386937D01*
X31196714Y-27316771D01*
X31314950Y-27251524D01*
X31436279Y-27191336D01*
X31560561Y-27136348D01*
X31687655Y-27086700D01*
X31817420Y-27042533D01*
X31949717Y-27003987D01*
X32084404Y-26971202D01*
X32221341Y-26944320D01*
X32360389Y-26923479D01*
X32501406Y-26908822D01*
X32501402Y-27905137D01*
G37*
G36*
X33142668Y-26922972D02*
G01*
X33281731Y-26943818D01*
X33418683Y-26970708D01*
X33553385Y-27003501D01*
X33685695Y-27042056D01*
X33815473Y-27086233D01*
X33942578Y-27135893D01*
X34066870Y-27190893D01*
X34188209Y-27251094D01*
X34306454Y-27316355D01*
X34421465Y-27386536D01*
X34533100Y-27461496D01*
X34641221Y-27541094D01*
X34745685Y-27625191D01*
X34846353Y-27713645D01*
X34943084Y-27806316D01*
X35035738Y-27903064D01*
X35124174Y-28003748D01*
X35208251Y-28108227D01*
X35287830Y-28216362D01*
X35362770Y-28328011D01*
X35432930Y-28443034D01*
X35498170Y-28561291D01*
X35558349Y-28682640D01*
X35613326Y-28806942D01*
X35662963Y-28934057D01*
X35707117Y-29063842D01*
X35745648Y-29196159D01*
X35778416Y-29330866D01*
X35805281Y-29467823D01*
X35826102Y-29606890D01*
X35840738Y-29747925D01*
X34844415Y-29747918D01*
X34831646Y-29658012D01*
X34815179Y-29569385D01*
X34795095Y-29482117D01*
X34771474Y-29396289D01*
X34744398Y-29311982D01*
X34713946Y-29229276D01*
X34680199Y-29148252D01*
X34643238Y-29068990D01*
X34603144Y-28991572D01*
X34559998Y-28916078D01*
X34513879Y-28842588D01*
X34464869Y-28771183D01*
X34413047Y-28701944D01*
X34358496Y-28634951D01*
X34301295Y-28570286D01*
X34241525Y-28508028D01*
X34179267Y-28448258D01*
X34114602Y-28391057D01*
X34047609Y-28336506D01*
X33978370Y-28284685D01*
X33906965Y-28235675D01*
X33833475Y-28189557D01*
X33757980Y-28146411D01*
X33680562Y-28106317D01*
X33601301Y-28069357D01*
X33520277Y-28035611D01*
X33437571Y-28005159D01*
X33353263Y-27978083D01*
X33267436Y-27954463D01*
X33180168Y-27934379D01*
X33091540Y-27917913D01*
X33001635Y-27905144D01*
X33001635Y-26908311D01*
X33142668Y-26922972D01*
G37*
G36*
X30658625Y-30248162D02*
G01*
X30671394Y-30338068D01*
X30687861Y-30426695D01*
X30707945Y-30513963D01*
X30731566Y-30599791D01*
X30758642Y-30684098D01*
X30789094Y-30766804D01*
X30822841Y-30847828D01*
X30859802Y-30927090D01*
X30899896Y-31004508D01*
X30943042Y-31080002D01*
X30989161Y-31153492D01*
X31038171Y-31224897D01*
X31089993Y-31294136D01*
X31144544Y-31361129D01*
X31201745Y-31425794D01*
X31261515Y-31488052D01*
X31323773Y-31547822D01*
X31388439Y-31605022D01*
X31455431Y-31659574D01*
X31524670Y-31711394D01*
X31596075Y-31760404D01*
X31669565Y-31806523D01*
X31745060Y-31849669D01*
X31822478Y-31889763D01*
X31901740Y-31926723D01*
X31982764Y-31960469D01*
X32065469Y-31990921D01*
X32149777Y-32017997D01*
X32235605Y-32041617D01*
X32322872Y-32061701D01*
X32411500Y-32078167D01*
X32501406Y-32090935D01*
X32501406Y-33087258D01*
X32360389Y-33072600D01*
X32221341Y-33051759D01*
X32084404Y-33024876D01*
X31949717Y-32992091D01*
X31817420Y-32953544D01*
X31687655Y-32909377D01*
X31560561Y-32859729D01*
X31436279Y-32804741D01*
X31314950Y-32744553D01*
X31196714Y-32679306D01*
X31081711Y-32609140D01*
X30970082Y-32534196D01*
X30861967Y-32454614D01*
X30757507Y-32370534D01*
X30656843Y-32282098D01*
X30560114Y-32189445D01*
X30467461Y-32092716D01*
X30379024Y-31992052D01*
X30294945Y-31887592D01*
X30215363Y-31779477D01*
X30140419Y-31667848D01*
X30070253Y-31552846D01*
X30005006Y-31434610D01*
X29944818Y-31313280D01*
X29889830Y-31188999D01*
X29840182Y-31061905D01*
X29796015Y-30932140D01*
X29757468Y-30799843D01*
X29724684Y-30665156D01*
X29697801Y-30528219D01*
X29676960Y-30389171D01*
X29662302Y-30248154D01*
X30658625Y-30248162D01*
G37*
G36*
X35826102Y-30389182D02*
G01*
X35805281Y-30528249D01*
X35778416Y-30665206D01*
X35745648Y-30799914D01*
X35707117Y-30932231D01*
X35662963Y-31062016D01*
X35613326Y-31189131D01*
X35558349Y-31313433D01*
X35498170Y-31434783D01*
X35432930Y-31553040D01*
X35362770Y-31668064D01*
X35287830Y-31779713D01*
X35208251Y-31887848D01*
X35124174Y-31992328D01*
X35035738Y-32093013D01*
X34943084Y-32189761D01*
X34846353Y-32282433D01*
X34745685Y-32370887D01*
X34641221Y-32454985D01*
X34533100Y-32534584D01*
X34421465Y-32609544D01*
X34306454Y-32679725D01*
X34188209Y-32744987D01*
X34066870Y-32805189D01*
X33942578Y-32860190D01*
X33815473Y-32909850D01*
X33685695Y-32954028D01*
X33553385Y-32992584D01*
X33418683Y-33025378D01*
X33281731Y-33052268D01*
X33142668Y-33073114D01*
X33001635Y-33087777D01*
X33001638Y-32090943D01*
X33091544Y-32078174D01*
X33180172Y-32061707D01*
X33267439Y-32041623D01*
X33353267Y-32018002D01*
X33437574Y-31990925D01*
X33520280Y-31960473D01*
X33601304Y-31926727D01*
X33680566Y-31889766D01*
X33757984Y-31849672D01*
X33833478Y-31806525D01*
X33906968Y-31760406D01*
X33978373Y-31711396D01*
X34047612Y-31659575D01*
X34114605Y-31605023D01*
X34179271Y-31547822D01*
X34241529Y-31488052D01*
X34301298Y-31425794D01*
X34358499Y-31361128D01*
X34413050Y-31294135D01*
X34464871Y-31224895D01*
X34513882Y-31153490D01*
X34560000Y-31080000D01*
X34603147Y-31004505D01*
X34643241Y-30927086D01*
X34680201Y-30847825D01*
X34713947Y-30766800D01*
X34744399Y-30684094D01*
X34771476Y-30599786D01*
X34795096Y-30513957D01*
X34815180Y-30426689D01*
X34831647Y-30338061D01*
X34844415Y-30248154D01*
X35840738Y-30248147D01*
X35826102Y-30389182D01*
G37*
%TO.C,SP3*%
G36*
X30658625Y-15498162D02*
G01*
X30671394Y-15588068D01*
X30687861Y-15676695D01*
X30707945Y-15763963D01*
X30731566Y-15849791D01*
X30758642Y-15934098D01*
X30789094Y-16016804D01*
X30822841Y-16097828D01*
X30859802Y-16177090D01*
X30899896Y-16254508D01*
X30943042Y-16330002D01*
X30989161Y-16403492D01*
X31038171Y-16474897D01*
X31089993Y-16544136D01*
X31144544Y-16611129D01*
X31201745Y-16675794D01*
X31261515Y-16738052D01*
X31323773Y-16797822D01*
X31388439Y-16855022D01*
X31455431Y-16909574D01*
X31524670Y-16961394D01*
X31596075Y-17010404D01*
X31669565Y-17056523D01*
X31745060Y-17099669D01*
X31822478Y-17139763D01*
X31901740Y-17176723D01*
X31982764Y-17210469D01*
X32065469Y-17240921D01*
X32149777Y-17267997D01*
X32235605Y-17291617D01*
X32322872Y-17311701D01*
X32411500Y-17328167D01*
X32501406Y-17340935D01*
X32501406Y-18337258D01*
X32360389Y-18322600D01*
X32221341Y-18301759D01*
X32084404Y-18274876D01*
X31949717Y-18242091D01*
X31817420Y-18203544D01*
X31687655Y-18159377D01*
X31560561Y-18109729D01*
X31436279Y-18054741D01*
X31314950Y-17994553D01*
X31196714Y-17929306D01*
X31081711Y-17859140D01*
X30970082Y-17784196D01*
X30861967Y-17704614D01*
X30757507Y-17620534D01*
X30656843Y-17532098D01*
X30560114Y-17439445D01*
X30467461Y-17342716D01*
X30379024Y-17242052D01*
X30294945Y-17137592D01*
X30215363Y-17029477D01*
X30140419Y-16917848D01*
X30070253Y-16802846D01*
X30005006Y-16684610D01*
X29944818Y-16563280D01*
X29889830Y-16438999D01*
X29840182Y-16311905D01*
X29796015Y-16182140D01*
X29757468Y-16049843D01*
X29724684Y-15915156D01*
X29697801Y-15778219D01*
X29676960Y-15639171D01*
X29662302Y-15498154D01*
X30658625Y-15498162D01*
G37*
G36*
X35826102Y-15639182D02*
G01*
X35805281Y-15778249D01*
X35778416Y-15915206D01*
X35745648Y-16049914D01*
X35707117Y-16182231D01*
X35662963Y-16312016D01*
X35613326Y-16439131D01*
X35558349Y-16563433D01*
X35498170Y-16684783D01*
X35432930Y-16803040D01*
X35362770Y-16918064D01*
X35287830Y-17029713D01*
X35208251Y-17137848D01*
X35124174Y-17242328D01*
X35035738Y-17343013D01*
X34943084Y-17439761D01*
X34846353Y-17532433D01*
X34745685Y-17620887D01*
X34641221Y-17704985D01*
X34533100Y-17784584D01*
X34421465Y-17859544D01*
X34306454Y-17929725D01*
X34188209Y-17994987D01*
X34066870Y-18055189D01*
X33942578Y-18110190D01*
X33815473Y-18159850D01*
X33685695Y-18204028D01*
X33553385Y-18242584D01*
X33418683Y-18275378D01*
X33281731Y-18302268D01*
X33142668Y-18323114D01*
X33001635Y-18337777D01*
X33001638Y-17340943D01*
X33091544Y-17328174D01*
X33180172Y-17311707D01*
X33267439Y-17291623D01*
X33353267Y-17268002D01*
X33437574Y-17240925D01*
X33520280Y-17210473D01*
X33601304Y-17176727D01*
X33680566Y-17139766D01*
X33757984Y-17099672D01*
X33833478Y-17056525D01*
X33906968Y-17010406D01*
X33978373Y-16961396D01*
X34047612Y-16909575D01*
X34114605Y-16855023D01*
X34179271Y-16797822D01*
X34241529Y-16738052D01*
X34301298Y-16675794D01*
X34358499Y-16611128D01*
X34413050Y-16544135D01*
X34464871Y-16474895D01*
X34513882Y-16403490D01*
X34560000Y-16330000D01*
X34603147Y-16254505D01*
X34643241Y-16177086D01*
X34680201Y-16097825D01*
X34713947Y-16016800D01*
X34744399Y-15934094D01*
X34771476Y-15849786D01*
X34795096Y-15763957D01*
X34815180Y-15676689D01*
X34831647Y-15588061D01*
X34844415Y-15498154D01*
X35840738Y-15498147D01*
X35826102Y-15639182D01*
G37*
G36*
X32501402Y-13155137D02*
G01*
X32411496Y-13167906D01*
X32322869Y-13184373D01*
X32235601Y-13204457D01*
X32149773Y-13228078D01*
X32065466Y-13255155D01*
X31982760Y-13285607D01*
X31901736Y-13319353D01*
X31822474Y-13356314D01*
X31745056Y-13396408D01*
X31669562Y-13439555D01*
X31596072Y-13485674D01*
X31524667Y-13534684D01*
X31455428Y-13586505D01*
X31388435Y-13641057D01*
X31323769Y-13698258D01*
X31261511Y-13758028D01*
X31201742Y-13820286D01*
X31144541Y-13884952D01*
X31089990Y-13951945D01*
X31038169Y-14021184D01*
X30989158Y-14092590D01*
X30943040Y-14166080D01*
X30899893Y-14241575D01*
X30859799Y-14318993D01*
X30822839Y-14398255D01*
X30789093Y-14479280D01*
X30758641Y-14561986D01*
X30731565Y-14646294D01*
X30707944Y-14732122D01*
X30687860Y-14819391D01*
X30671394Y-14908019D01*
X30658625Y-14997925D01*
X29662302Y-14997925D01*
X29676960Y-14856909D01*
X29697801Y-14717861D01*
X29724684Y-14580924D01*
X29757468Y-14446236D01*
X29796015Y-14313940D01*
X29840182Y-14184174D01*
X29889830Y-14057080D01*
X29944818Y-13932798D01*
X30005006Y-13811469D01*
X30070253Y-13693233D01*
X30140419Y-13578230D01*
X30215363Y-13466601D01*
X30294945Y-13358486D01*
X30379024Y-13254026D01*
X30467461Y-13153361D01*
X30560114Y-13056632D01*
X30656843Y-12963979D01*
X30757507Y-12875542D01*
X30861967Y-12791463D01*
X30970082Y-12711881D01*
X31081711Y-12636937D01*
X31196714Y-12566771D01*
X31314950Y-12501524D01*
X31436279Y-12441336D01*
X31560561Y-12386348D01*
X31687655Y-12336700D01*
X31817420Y-12292533D01*
X31949717Y-12253987D01*
X32084404Y-12221202D01*
X32221341Y-12194320D01*
X32360389Y-12173479D01*
X32501406Y-12158822D01*
X32501402Y-13155137D01*
G37*
G36*
X33142668Y-12172972D02*
G01*
X33281731Y-12193818D01*
X33418683Y-12220708D01*
X33553385Y-12253501D01*
X33685695Y-12292056D01*
X33815473Y-12336233D01*
X33942578Y-12385893D01*
X34066870Y-12440893D01*
X34188209Y-12501094D01*
X34306454Y-12566355D01*
X34421465Y-12636536D01*
X34533100Y-12711496D01*
X34641221Y-12791094D01*
X34745685Y-12875191D01*
X34846353Y-12963645D01*
X34943084Y-13056316D01*
X35035738Y-13153064D01*
X35124174Y-13253748D01*
X35208251Y-13358227D01*
X35287830Y-13466362D01*
X35362770Y-13578011D01*
X35432930Y-13693034D01*
X35498170Y-13811291D01*
X35558349Y-13932640D01*
X35613326Y-14056942D01*
X35662963Y-14184057D01*
X35707117Y-14313842D01*
X35745648Y-14446159D01*
X35778416Y-14580866D01*
X35805281Y-14717823D01*
X35826102Y-14856890D01*
X35840738Y-14997925D01*
X34844415Y-14997918D01*
X34831646Y-14908012D01*
X34815179Y-14819385D01*
X34795095Y-14732117D01*
X34771474Y-14646289D01*
X34744398Y-14561982D01*
X34713946Y-14479276D01*
X34680199Y-14398252D01*
X34643238Y-14318990D01*
X34603144Y-14241572D01*
X34559998Y-14166078D01*
X34513879Y-14092588D01*
X34464869Y-14021183D01*
X34413047Y-13951944D01*
X34358496Y-13884951D01*
X34301295Y-13820286D01*
X34241525Y-13758028D01*
X34179267Y-13698258D01*
X34114602Y-13641057D01*
X34047609Y-13586506D01*
X33978370Y-13534685D01*
X33906965Y-13485675D01*
X33833475Y-13439557D01*
X33757980Y-13396411D01*
X33680562Y-13356317D01*
X33601301Y-13319357D01*
X33520277Y-13285611D01*
X33437571Y-13255159D01*
X33353263Y-13228083D01*
X33267436Y-13204463D01*
X33180168Y-13184379D01*
X33091540Y-13167913D01*
X33001635Y-13155144D01*
X33001635Y-12158311D01*
X33142668Y-12172972D01*
G37*
%TD*%
M02*
