%TF.GenerationSoftware,KiCad,Pcbnew,6.0.4-6f826c9f35~116~ubuntu18.04.1*%
%TF.CreationDate,2023-11-26T11:14:00-05:00*%
%TF.ProjectId,SH101_MOD_GRIP_BOARD,53483130-315f-44d4-9f44-5f475249505f,rev?*%
%TF.SameCoordinates,Original*%
%TF.FileFunction,Profile,NP*%
%FSLAX46Y46*%
G04 Gerber Fmt 4.6, Leading zero omitted, Abs format (unit mm)*
G04 Created by KiCad (PCBNEW 6.0.4-6f826c9f35~116~ubuntu18.04.1) date 2023-11-26 11:14:00*
%MOMM*%
%LPD*%
G01*
G04 APERTURE LIST*
%TA.AperFunction,Profile*%
%ADD10C,0.100000*%
%TD*%
%TA.AperFunction,Profile*%
%ADD11C,0.120000*%
%TD*%
G04 APERTURE END LIST*
D10*
X28000000Y-34600000D02*
G75*
G03*
X29500000Y-36100000I1500000J0D01*
G01*
X11500000Y-36100000D02*
G75*
G03*
X13000000Y-34600000I0J1500000D01*
G01*
X13000000Y-26100000D02*
X28000000Y-26100000D01*
X13000000Y-34600000D02*
X13000000Y-26100000D01*
X28000000Y-26100000D02*
X28000000Y-34600000D01*
X29500000Y-36100000D02*
X40500000Y-36100000D01*
X0Y-36100000D02*
X11500000Y-36100000D01*
X31500000Y-9500000D02*
G75*
G03*
X31500000Y-9500000I-1000000J0D01*
G01*
X0Y0D02*
X8750000Y0D01*
X26500000Y-4500000D02*
G75*
G03*
X26500000Y-4500000I-1000000J0D01*
G01*
X40500000Y0D02*
X40500000Y-36100000D01*
X21500000Y-9500000D02*
G75*
G03*
X21500000Y-9500000I-1000000J0D01*
G01*
X0Y0D02*
X0Y-36100000D01*
X8750000Y-8750000D02*
X14250000Y-8750000D01*
X14250000Y-8750000D02*
X14250000Y0D01*
X14250000Y0D02*
X40500000Y0D01*
X8750000Y0D02*
X8750000Y-8750000D01*
X13750000Y-15750000D02*
X27250000Y-15750000D01*
X27250000Y-15750000D02*
X27250000Y-19000000D01*
X27250000Y-19000000D02*
X13750000Y-19000000D01*
X13750000Y-19000000D02*
X13750000Y-15750000D01*
D11*
%TO.C,SP2*%
X8750000Y-30000000D02*
G75*
G03*
X8750000Y-30000000I-500000J0D01*
G01*
%TO.C,SP1*%
X8750000Y-12250000D02*
G75*
G03*
X8750000Y-12250000I-500000J0D01*
G01*
%TO.C,SP4*%
X33250000Y-30000000D02*
G75*
G03*
X33250000Y-30000000I-500000J0D01*
G01*
%TO.C,SP3*%
X33250000Y-15250000D02*
G75*
G03*
X33250000Y-15250000I-500000J0D01*
G01*
%TD*%
M02*
